<svg xmlns="http://www.w3.org/2000/svg" xml:space="preserve" aria-hidden="true" width="1294.829" height="1368.437" viewBox="0 0 342.59 362.066"><path d="M-32.084-38.066h274.857a33.867 33.867 45 0 1 33.866 33.867v294.332A33.867 33.867 135 0 1 242.773 324H-32.084a33.867 33.867 45 0 1-33.867-33.867V-4.199a33.867 33.867 135 0 1 33.867-33.867" style="fill:#000;stroke-width:.265;stroke-dasharray:none" transform="translate(65.95 38.066)"/><path d="M97.285 143.418c-21.904-1.805-35.654-7.161-38.6-15.039-1.663-4.442-.685-27.075 1.095-25.368 5.05 4.844 17.902 9.463 30.361 10.914 1.237.145 3.5.416 5.027.604 21.521 2.647 49.855-2.962 59.664-11.812.727-.656 1.416-1.197 1.53-1.2.776-.027.028 25.85-.797 27.592-3.226 6.813-13.953 11.293-33.145 13.845-2.879.383-21.866.733-25.135.464m-2.646-34.385c-19.54-1.835-33.109-7.348-35.963-14.611-1.756-4.469-.644-28.28 1.237-26.476 16.875 16.19 77.985 16.182 94.864-.01 1.928-1.85 2.872 22.875 1.039 27.188-4.556 10.718-31.043 16.74-61.177 13.91m5.292-34.798c-30.66-1.553-49.719-13.42-38.732-24.116 15.897-15.478 77.937-15.296 92.498.271 12.16 13-16.544 25.73-53.766 23.845" style="fill:green" transform="translate(46.395 18.013)scale(1.16481)"/><path d="M40.116 240.851c-3.801-1.036-6.596-4.472-6.596-8.11 0-8.65-5.582-24.082-10.766-29.764-.266-.291-.896-1.065-1.4-1.72s-.984-1.25-1.066-1.323-1.696-1.978-3.588-4.233-4.94-5.887-6.774-8.07a2454 2454 0 0 1-6.854-8.202c-1.935-2.328-4.964-5.96-6.731-8.07-20.481-24.457-21.793-27.531-20.768-48.683.145-2.983.385-8.4.533-12.039s.569-12.627.933-19.976.945-19.195 1.292-26.326c.548-11.283.701-13.187 1.18-14.684 4.294-13.435 22.542-14.968 28.822-2.421 2.474 4.943 2.52 56.142.052 56.906-10.523 3.256-15.818 14.819-11.246 24.558 1.614 3.439.87 2.579 18.504 21.363 2.047 2.18 4.667 4.979 5.822 6.218s2.826 3.026 3.712 3.972 4.05 4.335 7.028 7.53c9.44 10.13 8.752 9.499 10.192 9.336 1.564-.176 2.255-.847 2.423-2.35.16-1.439.121-1.49-6.182-8.103a1181 1181 0 0 1-6.2-6.542c-2.177-2.34-10.086-10.746-19.562-20.793C.016 125.691-1.211 123.114 1.945 116.38c4.927-10.517 17.102-9.67 29.11 2.025 29.439 28.672 48.062 47.584 51.102 51.897 9.313 13.21 11.16 20.983 11.16 46.989 0 19.049-.3 20.177-6.086 22.96-1.9.913-44 1.45-47.115.601zm88.703-.051c-2.984-.811-5.51-3.022-6.684-5.853-.831-2.002-1.136-30.595-.395-37.032q1.889-16.404 12.851-30.401c2.66-3.395 51.914-52.363 54.901-54.581 15.29-11.354 32.579 4.813 19.684 18.407-.794.837-2.325 2.475-3.402 3.64a510 510 0 0 1-4.49 4.77c-3.436 3.6-9.539 10.066-16.848 17.85a9580 9580 0 0 1-9.776 10.397c-4.493 4.767-4.88 5.283-4.88 6.518 0 2.681 3.172 3.561 5.048 1.4.47-.541 3.478-3.782 6.684-7.202s7.384-7.884 9.284-9.921c1.9-2.038 4.295-4.598 5.32-5.689a1380 1380 0 0 0 3.587-3.836c2.536-2.725 5.937-6.342 10.54-11.208 5.873-6.211 7.012-7.92 8.264-12.394 2.542-9.087-3.391-19.252-12.61-21.604-1.447-.369-2.205-49.052-.84-53.865 4.255-15.001 24.957-15.557 29.91-.803.703 2.096.798 3.422 1.754 24.467.152 3.347.508 10.967.79 16.934.284 5.966.642 13.824.796 17.462s.45 10.5.656 15.25c.822 18.906-1.01 23.992-14.533 40.34-.735.888-2.586 3.136-4.114 4.995-1.528 1.86-4.19 5.063-5.918 7.117-24.426 29.06-24.75 29.472-27.497 34.966-3.166 6.334-5.129 13.48-5.726 20.85-.372 4.592-1.852 6.999-5.297 8.615-1.798.843-44.107 1.213-47.059.41z" style="fill:#f9f9f9;stroke:#666;stroke-width:1.2;stroke-dasharray:none" transform="translate(46.395 18.013)scale(1.16481)"/></svg>
